<svg id="Camada_2" data-name="Camada 2" xmlns="http://www.w3.org/2000/svg" viewBox="0 0 834.7 550.62"><defs><style>.cls-1{fill:#f9c2f2;}.cls-2{fill:#fafaf7;}.cls-3{fill:#ff00f9;}.cls-4{fill:#f7c314;}.cls-5{fill:#fff;}.cls-6{fill:#08496a;}.cls-7{fill:#bf192b;}</style></defs><path d="M754,408c.24-53.06,17.12-57.06,65.6-67.36C859.23,331.85,895,316.89,922.34,286a75.18,75.18,0,0,0,10.42-15.44c3.29-6.47,8.33-7.47,13-3.61,11.31,11.59,9.28,45.25-1.79,65.87a.81.81,0,0,0,.88,1.18c6.49-1.31,10.73,1.12,12.24,8.1,2,26.72-9.8,46.87-30,63a.48.48,0,0,0,.31.85c6.35-.16,9.75,3.13,8.68,11.64-8,23.63-24,35.41-42.25,44a.66.66,0,0,0,.11,1.24c9.84,2.49,14.11,7.26,10,15.49-11.73,17.42-28,26-47.46,28.5a.56.56,0,0,0-.2,1c6.68,3.79,7.52,9.06,1,16.2-16.88,13.27-34.83,16.22-53.52,12L797,534.3C795.51,493.9,777.74,451.35,754,408Z" transform="translate(-122.65 -264.69)"/><path d="M326,408c-.24-53.06-17.12-57.06-65.6-67.36C220.77,331.85,185,316.89,157.66,286a75.18,75.18,0,0,1-10.42-15.44c-3.29-6.47-8.33-7.47-13.05-3.61-11.31,11.59-9.28,45.25,1.79,65.87a.81.81,0,0,1-.88,1.18c-6.49-1.31-10.73,1.12-12.24,8.1-2,26.72,9.8,46.87,30,63a.48.48,0,0,1-.31.85c-6.35-.16-9.75,3.13-8.68,11.64,8,23.63,24.05,35.41,42.25,44a.66.66,0,0,1-.11,1.24c-9.84,2.49-14.11,7.26-10,15.49,11.73,17.42,28.05,26,47.46,28.5a.56.56,0,0,1,.2,1c-6.68,3.79-7.52,9.06-1,16.2,16.88,13.27,34.83,16.22,53.52,12L283,534.3C284.49,493.9,302.26,451.35,326,408Z" transform="translate(-122.65 -264.69)"/><path class="cls-1" d="M310.13,429.74a277.73,277.73,0,0,0-20.59,50c-13.25,2.7-25.53-5.17-24.81-18.05A44.82,44.82,0,0,0,279.6,455c-22.44-2.21-37.64-8.25-33.68-24.36a49.26,49.26,0,0,0,21.45-4.36c-17.34-2.45-30.91-10-39.65-24a1.29,1.29,0,0,0-2-.22c-3.76,4.1-3.54,10.88.55,16.12a.77.77,0,0,1-.69,1.24c-45.51-6-90.37-22.81-94.06-66.92a1.77,1.77,0,0,1,2.8-1.58c59,41.53,120,43.11,132.93,45.27a1,1,0,0,0,.84-1.58c-11.41-12-73.9-13.87-110.67-47.35-13.29-14.11-22.07-32.89-21.51-58.21a1.36,1.36,0,0,1,2.46-.77c24,32.84,55.11,53.36,93.23,61.82,15.87,5.33,47.76,8.49,63.52,20.85a23.62,23.62,0,0,1,9,18.84A125.64,125.64,0,0,0,310.13,429.74Z" transform="translate(-122.65 -264.69)"/><path class="cls-1" d="M285.45,495.1l-5.84-3.17a1.36,1.36,0,0,0-1.44.09c-15.16,11-30.61,18.88-46.48,22.21a1.37,1.37,0,0,0-.73,2.27c10.29,11.09,24.45,13.41,41.33,9.56a1.37,1.37,0,0,0,1-1.65c-2.82-12.53.35-18.48,10-17.33a1.35,1.35,0,0,0,1.51-1.43,18.86,18.86,0,0,1,1.28-8.87A1.34,1.34,0,0,0,285.45,495.1Z" transform="translate(-122.65 -264.69)"/><path class="cls-1" d="M233.85,429.91c-1.68,8.45,2.4,16,8.79,23.27a2.51,2.51,0,0,1-1.55,4.15c-43.58,5.79-71.1-7.51-86.23-35.54a2.5,2.5,0,0,1,2.79-3.6,379.54,379.54,0,0,0,73.8,8.81A2.47,2.47,0,0,1,233.85,429.91Z" transform="translate(-122.65 -264.69)"/><path class="cls-1" d="M263.6,484.26c-6.21-5.06-10.48-10.68-11.2-17.33a3,3,0,0,0-3.76-2.53A225.56,225.56,0,0,1,190,472.79a3,3,0,0,0-2.62,4.27c10.35,19.51,45.35,25.44,75.56,12.19A3,3,0,0,0,263.6,484.26Z" transform="translate(-122.65 -264.69)"/><path class="cls-1" d="M766,428.13a277.63,277.63,0,0,1,20.59,49.95c13.25,2.71,25.53-5.17,24.81-18a45,45,0,0,1-14.87-6.67c22.44-2.22,37.64-8.25,33.68-24.36a49.4,49.4,0,0,1-21.45-4.36c17.34-2.46,30.91-10,39.65-24a1.28,1.28,0,0,1,2-.22c3.76,4.1,3.54,10.87-.55,16.12a.76.76,0,0,0,.69,1.23c45.51-6,90.37-22.8,94.06-66.91a1.78,1.78,0,0,0-2.8-1.59c-59,41.53-120,43.12-132.93,45.28a1,1,0,0,1-.84-1.59c11.41-12,73.9-13.86,110.67-47.35,13.29-14.11,22.07-32.89,21.51-58.21a1.36,1.36,0,0,0-2.46-.76q-36,49.25-93.23,61.81c-15.87,5.34-47.76,8.49-63.52,20.85a23.63,23.63,0,0,0-9,18.84A125.75,125.75,0,0,1,766,428.13Z" transform="translate(-122.65 -264.69)"/><path class="cls-1" d="M790.65,493.49l5.84-3.18a1.34,1.34,0,0,1,1.44.1c15.16,11,30.61,18.87,46.48,22.21a1.36,1.36,0,0,1,.73,2.26c-10.29,11.1-24.45,13.42-41.33,9.57a1.38,1.38,0,0,1-1-1.65c2.82-12.53-.35-18.49-10-17.33A1.36,1.36,0,0,1,791.3,504a18.71,18.71,0,0,0-1.27-8.87A1.33,1.33,0,0,1,790.65,493.49Z" transform="translate(-122.65 -264.69)"/><path class="cls-1" d="M842.25,428.3c1.68,8.45-2.4,16-8.8,23.27a2.51,2.51,0,0,0,1.56,4.14c43.58,5.8,71.1-7.5,86.23-35.53a2.5,2.5,0,0,0-2.79-3.6,378.78,378.78,0,0,1-73.8,8.8A2.48,2.48,0,0,0,842.25,428.3Z" transform="translate(-122.65 -264.69)"/><path class="cls-1" d="M812.5,482.64c6.21-5.05,10.48-10.67,11.2-17.32a3,3,0,0,1,3.76-2.53,226,226,0,0,0,58.62,8.39,2.94,2.94,0,0,1,2.62,4.26c-10.36,19.52-45.35,25.45-75.56,12.2A3,3,0,0,1,812.5,482.64Z" transform="translate(-122.65 -264.69)"/><circle cx="413.78" cy="289.83" r="260.79"/><circle class="cls-2" cx="413.78" cy="289.83" r="244.31"/><circle class="cls-3" cx="413.78" cy="289.83" r="236.11"/><circle class="cls-4" cx="413.78" cy="289.83" r="199.5"/><polygon class="cls-5" points="414.12 492.25 417.59 502.95 428.84 502.95 419.74 509.56 423.21 520.25 414.12 513.64 405.02 520.25 408.49 509.56 399.39 502.95 410.64 502.95 414.12 492.25"/><polygon class="cls-5" points="338.4 480.45 338.03 491.69 348.61 495.51 337.81 498.64 337.44 509.88 331.13 500.57 320.33 503.69 327.23 494.81 320.92 485.51 331.5 489.33 338.4 480.45"/><polygon class="cls-5" points="490.03 479.79 496.46 489.01 507.22 485.75 500.44 494.72 506.87 503.94 496.24 500.26 489.45 509.22 489.67 497.98 479.05 494.3 489.81 491.03 490.03 479.79"/><path class="cls-6" d="M462,691.51l-2,16.7c-1.39,11.57-9.39,14.25-14,14.63-6.61.54-11.8-2.1-12.18-6.68a3.66,3.66,0,0,1,3.44-4.24c1.6-.13,3.37.93,4.1,3.33.66,2.22,1.77,4,4,3.8,3.33-.27,5.49-3.2,6.2-10.69l.27-2.6a11.52,11.52,0,0,1-8.63,4.48c-6.25.51-12.48-3.13-13.38-14.2-1.17-14.47,6.74-27.76,18.77-28.74,5.18-.42,11.53,2.42,12.12,9.74.14,1.73.33,7.77-5.09,8.21-3,.24-5.83-3.18-2.4-8.91,1.73-3-.06-5.22-2.86-5-7.51.61-11.51,13.35-11.26,21.6.25,7.47,2.48,12,6.41,11.71,4.17-.34,6.46-3.83,7.29-8.39l.43-4.35a1,1,0,0,1,1.05-1,31,31,0,0,0,6.67-.54A.94.94,0,0,1,462,691.51Z" transform="translate(-122.65 -264.69)"/><path class="cls-6" d="M464.81,697.58c-1.06-10.83,4.3-20.08,14.55-20.91,6.07-.49,11.77,2.58,12.46,11,.75,9.35-3.85,19.79-14.63,20.67C471.12,708.81,465.63,705.54,464.81,697.58ZM483,687.11c-.16-3.41-1.14-6-3.64-5.76-4.23.34-5.69,8.25-5.87,14.08-.17,3.91.43,8.36,3.77,8.09C481.39,703.18,483.35,694.15,483,687.11Z" transform="translate(-122.65 -264.69)"/><path class="cls-6" d="M525.05,700.48c-2,2.43-4.68,4.33-7.66,4.57-3.58.24-5.88-1.5-6.51-5.58-1.81,3.5-4.69,6.49-8.74,6.82-2.56.21-8.28-.1-7.07-11l2-18.27a1,1,0,0,1,1.06-1,32.83,32.83,0,0,0,6.79-.55,1,1,0,0,1,1,1.11c-1,7.75-2.54,19.57-2.41,21.24s.73,2.34,2.22,2.21c1.73-.14,4.23-2.56,5.21-6.65a.24.24,0,0,0,0-.19l2.35-17.57a1.12,1.12,0,0,1,1.12-.93,32.06,32.06,0,0,0,6.67-.54.91.91,0,0,1,1.05,1.11c-.76,5.46-2.19,15.16-2.81,20-.51,3.34.58,4.15,1.53,4.07a6.6,6.6,0,0,0,2.59-1.35C525.11,696.76,526.13,699.07,525.05,700.48Z" transform="translate(-122.65 -264.69)"/><path class="cls-6" d="M552.57,676.18c.27,3.34-1.41,6.29-4.33,6.53a3.11,3.11,0,0,1-3.41-3.62c.19-1.34-.18-2.26-1.49-2.16-1.85.15-4.67,3.8-5.87,10.43L535.78,702a1,1,0,0,1-1,1,23.22,23.22,0,0,0-6.44.52,1,1,0,0,1-1-1.11l3.29-28.15a1,1,0,0,1,1.06-1,22.88,22.88,0,0,0,6.37-.52.94.94,0,0,1,1,1.12l-.45,4c1.87-3.57,4.52-6.3,8.27-6.61A5.07,5.07,0,0,1,552.57,676.18Z" transform="translate(-122.65 -264.69)"/><path class="cls-6" d="M600.51,694.35c-2,2.44-4.69,4.34-7.61,4.57-5.12.36-7.59-3.4-6.33-11.53,1.31-9,3.27-13.63-.24-13.35-1.49.12-4.32,2.15-6.22,7.64l-2,16.89a1,1,0,0,1-1.06,1,29.43,29.43,0,0,0-6.49.53,1,1,0,0,1-1-1.11l2.23-18.35c.4-3.87.27-5.41-1.87-5.24-1.61.13-4.08,2.19-6,7.86l-2.12,16.65a1.05,1.05,0,0,1-1.06,1,28.07,28.07,0,0,0-6.37.52,1,1,0,0,1-1.05-1.12l3.29-28.14a1,1,0,0,1,1.06-1,32.36,32.36,0,0,0,6.73-.55.94.94,0,0,1,1,1.11l-.48,3.7c2.17-3.53,5.32-6.07,9.25-6.39,2.38-.19,6.13.22,6.48,6,2.31-4,5.85-7,10-7.29,2.91-.23,8.24.35,6.51,9.31-.75,4.07-1.56,8.15-2.31,12.23-.68,3.35.51,4,1.52,3.95a6.07,6.07,0,0,0,2.53-1.34C600.56,690.63,601.59,692.94,600.51,694.35Z" transform="translate(-122.65 -264.69)"/><path class="cls-6" d="M622.78,680c-2.94,2.88-7.72,4.53-11.64,5,.59,4.33,3.26,6.93,7.6,6.58a12.79,12.79,0,0,0,6-2.4c1.69-1.34,2.79,1.15,1.48,2.69a14.12,14.12,0,0,1-9.83,5.12,14.81,14.81,0,0,1-8.78-1.75c-3.46-2.06-5.33-5.86-5.61-10-.39-5.61,2-12.33,6.72-16.14a15.21,15.21,0,0,1,8.29-3.55c5.06-.41,8.65,2.48,9,6.53A10.38,10.38,0,0,1,622.78,680Zm-5.37-10.83c-3.52.28-6,6.42-6.35,12,5.24-2,8.28-6.66,8.17-10.19C619.14,669.82,618.48,669.09,617.41,669.18Z" transform="translate(-122.65 -264.69)"/><path class="cls-6" d="M649.16,664.5l-.27,2.6a.82.82,0,0,1-.78.72l-5.9.48c-.88,6.85-1.7,13.75-1.92,16.22-.3,3.62,1.49,5,3.75,4.85a8.33,8.33,0,0,0,4.19-1.59c1.65-1.16,2.67,1.16,1.58,2.5a13.91,13.91,0,0,1-9.62,4.74c-5.6.46-9.71-2.87-8.82-11.15L633,669.05l-4.11.33a.71.71,0,0,1-.78-.72l.33-2.6a.79.79,0,0,1,.78-.72c5.77-.59,9.66-6.6,11.77-11.57.66-1.49,3-1,2.87.61-.24,2.17-.67,5.81-1.18,9.87l5.72-.47A.64.64,0,0,1,649.16,664.5Z" transform="translate(-122.65 -264.69)"/><path d="M462,691.51l-2,16.7c-1.39,11.57-9.39,14.25-14,14.63-6.61.54-11.8-2.1-12.18-6.68a3.66,3.66,0,0,1,3.44-4.24c1.6-.13,3.37.93,4.1,3.33.66,2.22,1.77,4,4,3.8,3.33-.27,5.49-3.2,6.2-10.69l.27-2.6a11.52,11.52,0,0,1-8.63,4.48c-6.25.51-12.48-3.13-13.38-14.2-1.17-14.47,6.74-27.76,18.77-28.74,5.18-.42,11.53,2.42,12.12,9.74.14,1.73.33,7.77-5.09,8.21-3,.24-5.83-3.18-2.4-8.91,1.73-3-.06-5.22-2.86-5-7.51.61-11.51,13.35-11.26,21.6.25,7.47,2.48,12,6.41,11.71,4.17-.34,6.46-3.83,7.29-8.39l.43-4.35a1,1,0,0,1,1.05-1,31,31,0,0,0,6.67-.54A.94.94,0,0,1,462,691.51Z" transform="translate(-122.65 -264.69)"/><path d="M464.81,697.58c-1.06-10.83,4.3-20.08,14.55-20.91,6.07-.49,11.77,2.58,12.46,11,.75,9.35-3.85,19.79-14.63,20.67C471.12,708.81,465.63,705.54,464.81,697.58ZM483,687.11c-.16-3.41-1.14-6-3.64-5.76-4.23.34-5.69,8.25-5.87,14.08-.17,3.91.43,8.36,3.77,8.09C481.39,703.18,483.35,694.15,483,687.11Z" transform="translate(-122.65 -264.69)"/><path d="M525.05,700.48c-2,2.43-4.68,4.33-7.66,4.57-3.58.24-5.88-1.5-6.51-5.58-1.81,3.5-4.69,6.49-8.74,6.82-2.56.21-8.28-.1-7.07-11l2-18.27a1,1,0,0,1,1.06-1,32.83,32.83,0,0,0,6.79-.55,1,1,0,0,1,1,1.11c-1,7.75-2.54,19.57-2.41,21.24s.73,2.34,2.22,2.21c1.73-.14,4.23-2.56,5.21-6.65a.24.24,0,0,0,0-.19l2.35-17.57a1.12,1.12,0,0,1,1.12-.93,32.06,32.06,0,0,0,6.67-.54.91.91,0,0,1,1.05,1.11c-.76,5.46-2.19,15.16-2.81,20-.51,3.34.58,4.15,1.53,4.07a6.6,6.6,0,0,0,2.59-1.35C525.11,696.76,526.13,699.07,525.05,700.48Z" transform="translate(-122.65 -264.69)"/><path d="M552.57,676.18c.27,3.34-1.41,6.29-4.33,6.53a3.11,3.11,0,0,1-3.41-3.62c.19-1.34-.18-2.26-1.49-2.16-1.85.15-4.67,3.8-5.87,10.43L535.78,702a1,1,0,0,1-1,1,23.22,23.22,0,0,0-6.44.52,1,1,0,0,1-1-1.11l3.29-28.15a1,1,0,0,1,1.06-1,22.88,22.88,0,0,0,6.37-.52.94.94,0,0,1,1,1.12l-.45,4c1.87-3.57,4.52-6.3,8.27-6.61A5.07,5.07,0,0,1,552.57,676.18Z" transform="translate(-122.65 -264.69)"/><path d="M600.51,694.35c-2,2.44-4.69,4.34-7.61,4.57-5.12.36-7.59-3.4-6.33-11.53,1.31-9,3.27-13.63-.24-13.35-1.49.12-4.32,2.15-6.22,7.64l-2,16.89a1,1,0,0,1-1.06,1,29.43,29.43,0,0,0-6.49.53,1,1,0,0,1-1-1.11l2.23-18.35c.4-3.87.27-5.41-1.87-5.24-1.61.13-4.08,2.19-6,7.86l-2.12,16.65a1.05,1.05,0,0,1-1.06,1,28.07,28.07,0,0,0-6.37.52,1,1,0,0,1-1.05-1.12l3.29-28.14a1,1,0,0,1,1.06-1,32.36,32.36,0,0,0,6.73-.55.94.94,0,0,1,1,1.11l-.48,3.7c2.17-3.53,5.32-6.07,9.25-6.39,2.38-.19,6.13.22,6.48,6,2.31-4,5.85-7,10-7.29,2.91-.23,8.24.35,6.51,9.31-.75,4.07-1.56,8.15-2.31,12.23-.68,3.35.51,4,1.52,3.95a6.07,6.07,0,0,0,2.53-1.34C600.56,690.63,601.59,692.94,600.51,694.35Z" transform="translate(-122.65 -264.69)"/><path d="M622.78,680c-2.94,2.88-7.72,4.53-11.64,5,.59,4.33,3.26,6.93,7.6,6.58a12.79,12.79,0,0,0,6-2.4c1.69-1.34,2.79,1.15,1.48,2.69a14.12,14.12,0,0,1-9.83,5.12,14.81,14.81,0,0,1-8.78-1.75c-3.46-2.06-5.33-5.86-5.61-10-.39-5.61,2-12.33,6.72-16.14a15.21,15.21,0,0,1,8.29-3.55c5.06-.41,8.65,2.48,9,6.53A10.38,10.38,0,0,1,622.78,680Zm-5.37-10.83c-3.52.28-6,6.42-6.35,12,5.24-2,8.28-6.66,8.17-10.19C619.14,669.82,618.48,669.09,617.41,669.18Z" transform="translate(-122.65 -264.69)"/><path d="M649.16,664.5l-.27,2.6a.82.82,0,0,1-.78.72l-5.9.48c-.88,6.85-1.7,13.75-1.92,16.22-.3,3.62,1.49,5,3.75,4.85a8.33,8.33,0,0,0,4.19-1.59c1.65-1.16,2.67,1.16,1.58,2.5a13.91,13.91,0,0,1-9.62,4.74c-5.6.46-9.71-2.87-8.82-11.15L633,669.05l-4.11.33a.71.71,0,0,1-.78-.72l.33-2.6a.79.79,0,0,1,.78-.72c5.77-.59,9.66-6.6,11.77-11.57.66-1.49,3-1,2.87.61-.24,2.17-.67,5.81-1.18,9.87l5.72-.47A.64.64,0,0,1,649.16,664.5Z" transform="translate(-122.65 -264.69)"/><path d="M804.12,539V523.38c-1.29-8.1-1.09-12.64-2.42-15.11-3.05-5.63-12.26-1.48-25.42-1.08-12.81.13-21.87,8.43-28.76,21.45a2.27,2.27,0,0,1-3.89.23c-17.74-24.81-52.3-18.56-71.53,1.29-9.48-10.41-21.86-11.67-36.58-5.49-5.58-2.81-30.54-.62-37.9,5.06-8.49-4.09-17.62-3.18-27.27,1.53-23.51,1-34.51-2-39.46,7.58-4.58-5.54-15.25-3.92-22.51-3.36-10.89.86-20,3.69-22.21,8.5a7.14,7.14,0,0,0-4.93-3.21A121,121,0,0,0,451,542.51c-6.88,1.45-11.41,8.1-12.91,15.86-4.8-10-14.56-14.24-29.17-12.87L411.53,535a48.93,48.93,0,0,0,23.16-15.41c13.25,15.42,29.9,18,50.81,4.64,10.14,5.61,21.43,4.39,33.46-1.25,19.17-.56,36.41,2.46,41.49-15.81,12.43,13.46,27.19,15.05,44.79,2.22,15.33,9.47,30.64,6.6,46-7.18,37.73,19.4,60.5-1.87,74.56-46.91q13.18-6.46,21.27-23.27c9.34-31.65-8.53-33.3-21.55-21.31C717,387,687,385,664.27,400.73a12.19,12.19,0,0,0-8.16-4.44c2.69-15.34,5-25-3.57-29.09a7,7,0,0,0-3.83-.58l-24.51,2.75a20.1,20.1,0,0,0-7.29,2.17c-7.33,3.92-7.62,10-11.42,28.76-5.06,2.2-7.59,5.41-7.3,9.73-8.16-8.57-24.59-6.62-33.46.44-.71-3.16-32.61-1.44-36.89,6.28-5.73-3.71-27.07-2.18-33.37,1-26.35-5.43-43.24,9.45-56.89,31.28l-5.85-9.36c16.16-2.32,22.61-17.45,18.88-45.95-4.06-10.92-13.52-15.14-24.78-17.13q-39.24-1.8-56.83,33.34c-6.39,18.36-3,35.79,10,52.3-22.76,4-34.87,17.86-34.89,42.76-53.82-5.41-93.64,58.36-89.1,126.71,3.79,28.63,21.69,44.33,55.77,45.18,11-1.57,22.49-6.16,34.33-12.87,1.07,5.17,18.32,2.1,31.32,1.2,6.57-.44,11.64-4.22,15-11.78,15.15,12.09,31.68,11.68,49.48-.38,13.26,8.1,28.09,5.4,43.86-3.63,11,5.32,23.16,4.33,36,0,21.55-1.14,43,3.89,46.71-16.13l7.44-53.21,9.16,3.18-6.54,44c-1,7.17.72,12.81,6.73,16l38.13-2.1c5.65-2.84,9-8.84,10.68-17.16l7.33-50.32a19.35,19.35,0,0,0,8.88,3.41c-9.36,63.7,41.37,74,81.25,38.9,15.67,15.26,35.09,17.06,58.13,6C810.09,609.89,818,584.83,804.12,539ZM349.37,581.35l-3.92,29.52a11,11,0,0,1-1.55,4.26c-5.23,8.43-11.41,14.12-19.2,15.12a10.45,10.45,0,0,1-11.51-8.5c-2.74-14,3.63-34.81,10.05-55.66C328.28,576.48,336.73,582,349.37,581.35Z" transform="translate(-122.65 -264.69)"/><path class="cls-3" d="M333.73,563.17c22.17-25.22,6-39.07-11.43-22.44a42.29,42.29,0,0,0-11.08,18.38c-14.24,47-15.15,72.44-4.94,79.85,8.91,6.46,35.74,14.59,50.74-19.44l15.32-82.38,25.74-2-7.72,39.19c12.79-19.17,43.18-19.17,40.9,1.14-.46,10.32-4.08,30.3-7.63,50-.95,9.54,10.68,7.25,18.11-3.24l11.54-65.12,25.17-1.9c-3.48,22-8.88,45.14-10.2,59.25-2.1,15,5.24,19.69,17.83,1.38l11.44-63.11,25-2.29L510.86,613.6c.23,16.82,13,5.92,18.88-4.19L540,549l25-2.48-1.15,9.15c10.49-13.17,22.15-17.25,31.57-11.7,3.5,2.06,8.28,23.9-14.79,28.29-2.29-15.64-13-11.14-18.69-.76L550.91,636.1l-25.75,2.67L527.45,627c-8.48,8.48-16.76,15.32-24.35,16.37-6.71.93-13.88-1.4-18.17-13.7-13.82,16.59-19.2,17.21-26.38,17.59-7.45.41-13.05-4.12-16.81-13.2-8.87,11-17.51,17.52-25.83,17.74-6,.16-14.4-.68-17.55-10.21-2.84-10.84,4.58-33,7.16-55.92-1.15-10.53-13.64-4.24-17.45,3.86l-11.44,63.59-24.41,3.25,2.1-17.74c-22.88,24.7-34.38,26-48.91,26.59-15.21.64-27.11-4.82-32.32-17.63-11.83-25.3-3.43-71.21,23.6-106.55,11.06-15.32,42.21-31.18,60-13.8a10.5,10.5,0,0,1,3.11,7.23c.48,21-4.24,33.5-14.28,37.21C338.34,571.73,335.54,567.89,333.73,563.17Z" transform="translate(-122.65 -264.69)"/><path class="cls-5" d="M331.47,559c22.17-25.23,6-39.08-11.43-22.44A42.2,42.2,0,0,0,309,554.91c-14.24,47-15.15,72.44-4.94,79.85,8.92,6.47,35.74,14.6,50.74-19.44L370.08,533l25.74-2-7.72,39.18C400.89,551,431.29,551,429,571.27c-.45,10.32-4.08,30.31-7.63,50.06-.95,9.53,10.68,7.24,18.12-3.24L451,553l25.17-1.91c-3.48,22.05-8.88,45.15-10.2,59.26-2.1,15,5.24,19.68,17.83,1.38l11.44-63.12,25-2.28-11.63,63.11c.22,16.82,13,5.91,18.87-4.2l10.3-60.44,25-2.48-1.15,9.15c10.49-13.17,22.15-17.24,31.57-11.69,3.5,2,8.28,23.9-14.79,28.28-2.29-15.63-13-11.14-18.68-.76l-11.06,64.64-25.74,2.67,2.28-11.82c-8.47,8.47-16.76,15.31-24.35,16.36-6.71.93-13.88-1.4-18.17-13.69-13.82,16.58-19.2,17.2-26.38,17.59-7.45.4-13.05-4.12-16.8-13.21-8.88,11-17.52,17.53-25.84,17.75-6,.15-14.4-.68-17.54-10.22-2.85-10.84,4.57-33,7.15-55.91-1.15-10.54-13.64-4.24-17.45,3.86l-11.44,63.59L350,652.12l2.1-17.73c-22.88,24.69-34.38,26-48.91,26.58-15.2.64-27.11-4.82-32.32-17.62-11.82-25.3-3.43-71.22,23.6-106.55,11.71-16.22,45.9-33,63-10.43C367.85,544.93,342.5,590.5,331.47,559Z" transform="translate(-122.65 -264.69)"/><path class="cls-3" d="M607,542l-15.82,91.33,26.5-3,9.15-54.91c2.48-18.12,19.26-29,20.4-10.68,5.34,7.25,20.91-4.06,19.45-19.26-6.29-16.25-21.75-10.25-34.7,4l1.72-10.3Z" transform="translate(-122.65 -264.69)"/><path class="cls-5" d="M603.38,537.57,587.55,628.9l26.51-3,9.15-54.92c2.48-18.11,19.26-29,20.4-10.67,5.34,7.24,20.91-4.07,19.45-19.26-6.29-16.26-21.76-10.25-34.7,4l1.71-10.29Z" transform="translate(-122.65 -264.69)"/><path class="cls-3" d="M738.8,556.47c.68-29-23.66-33-44.32-22.88-22,14.14-31.8,36.28-32.79,64.26,1.63,29.86,27.74,35.34,50.91,20.11,12.37-12.12,22.58-27.19,26.21-51.19,11.06-3.13,21.35-9.39,30.13-21.74.38,20.59,7.59,42.82,2.67,50.34-3.24,9.72-22.88,10.67-21.54,1.33,2-6.55,9.55-8.26,11.14-11.75,2.46-5.39.1-9.23-5.82-9.12a12.13,12.13,0,0,0-7.72,3.11q-14.58,12.76-8.9,27.29c5.2,14.49,27.17,15.74,45.33,5.58,8.49-5.77,13.57-14.57,15.3-26.31.26-9.66-4-21-4.72-33a81.9,81.9,0,0,1-1-31.17l-24.17,2.61C762,543.85,751.45,553.75,738.8,556.47Z" transform="translate(-122.65 -264.69)"/><path class="cls-5" d="M735.22,552.32c.69-29-23.66-33-44.31-22.88-22,14.14-31.8,36.28-32.8,64.26,1.64,29.86,27.75,35.34,50.91,20.11,12.38-12.12,22.59-27.19,26.22-51.19,11.06-3.13,21.35-9.38,30.13-21.74.38,20.59,7.58,42.82,2.67,50.34-3.24,9.72-22.88,10.68-21.55,1.33,2-6.55,9.55-8.26,11.14-11.74,2.46-5.4.11-9.24-5.82-9.13a12.11,12.11,0,0,0-7.72,3.12q-14.58,12.76-8.9,27.29c5.21,14.49,27.17,15.73,45.34,5.58,8.49-5.78,13.56-14.57,15.3-26.32.26-9.66-4-21-4.72-33a81.55,81.55,0,0,1-1-31.18l-24.17,2.61C758.4,539.71,747.88,549.61,735.22,552.32Z" transform="translate(-122.65 -264.69)"/><path class="cls-3" d="M709,557a6,6,0,0,0-1.18,6.31c.86,2.07,2.81,3.43,4.34,5.07a4.34,4.34,0,0,1,1.17,1.9,5.24,5.24,0,0,1,0,2c-.87,5.19-3.41,10-4.36,15.16a53,53,0,0,1-3.49,11,27.2,27.2,0,0,1-5,8.28,11.75,11.75,0,0,1-8.56,4,5.46,5.46,0,0,1-3.39-1.07A3.88,3.88,0,0,1,688,609a7.21,7.21,0,0,1-.79-1c-2.48-3.7-2.8-8.21-3.34-12.62-.7-5.65.47-11.35,1.18-17,.85-6.85,3.29-13,4.94-19.76,2.15-8.88,5.92-17.77,12.89-23.71a7.25,7.25,0,0,1,2.81-1.66,4.85,4.85,0,0,1,4.41,1.19,6.47,6.47,0,0,1,1.87,2.78,7,7,0,0,1,.3,1.24c1.16,1.27,1.31,3,1.24,4.76-.08,2.51-1.25,5.4-.2,7.69.56,1.22-.14,2.68-1.12,3.59S709.92,556,709,557Z" transform="translate(-122.65 -264.69)"/><path d="M709,557a6,6,0,0,0-1.18,6.31c.86,2.07,2.81,3.43,4.34,5.07a4.34,4.34,0,0,1,1.17,1.9,5.24,5.24,0,0,1,0,2c-.87,5.19-3.41,10-4.36,15.16a53,53,0,0,1-3.49,11,27.2,27.2,0,0,1-5,8.28,11.75,11.75,0,0,1-8.56,4,5.46,5.46,0,0,1-3.39-1.07A3.88,3.88,0,0,1,688,609c-8.39-22.34,8.82-78,24-71.83a7,7,0,0,1,.3,1.24c1.16,1.27,1.31,3,1.24,4.76-.08,2.51-1.25,5.4-.2,7.69.56,1.22-.14,2.68-1.12,3.59S709.92,556,709,557Z" transform="translate(-122.65 -264.69)"/><path class="cls-3" d="M422.39,424.43c5.72,7.2,14.49,7.43,19.64-4.58,4.44-15.06,1.68-25.93-13.54-29.55-14.61-1.72-24.76,3.07-34.89,9.91a42.49,42.49,0,0,0-14.11,21.62c-1.47,9.8.3,19.28,4.43,28.53C389.21,461.66,404,471,406.37,478c3.22,9.58,4.15,18.23,1.72,27-4.36,9.22-16.75,13-26.89,6.93-7-5.43-.57-21.66,11.73-20.31,1.58-12.47-3.17-18.52-17.95-14.37-14.4,6.63-20.72,17.94-16.85,35.16,2.58,7.39,10.19,12.35,20.69,15,19.45,2.14,36.21-1.31,48.43-14.16,6.5-9.07,11.08-19.09,10.87-31.46-.47-11.2-4.25-20.4-11.58-27.46l-16.16-16.35-5.63-8c-3.08-6.27-3.5-12.62-.76-19.07,5.34-9.72,21.45-12.87,24.88-1.24C429.69,416.53,426.6,420.86,422.39,424.43Z" transform="translate(-122.65 -264.69)"/><path class="cls-5" d="M419.72,421.21c5.72,7.2,14.49,7.44,19.64-4.57,4.44-15.07,1.68-25.94-13.54-29.56-14.61-1.72-24.76,3.08-34.89,9.92a42.46,42.46,0,0,0-14.11,21.61c-1.47,9.8.3,19.29,4.43,28.53,5.29,11.3,20.09,20.6,22.45,27.6,3.22,9.58,4.15,18.24,1.72,27-4.36,9.22-16.74,13.05-26.89,6.94-7-5.44-.57-21.67,11.73-20.31,1.58-12.48-3.17-18.53-17.95-14.37-14.4,6.62-20.72,17.94-16.85,35.15,2.58,7.39,10.19,12.36,20.69,15,19.45,2.14,36.21-1.31,48.43-14.16,6.5-9.07,11.08-19.08,10.87-31.46-.47-11.19-4.25-20.39-11.58-27.46l-16.16-16.35-5.63-8a22,22,0,0,1-.76-19.07c5.34-9.73,21.45-12.87,24.88-1.24C427,413.31,423.93,417.64,419.72,421.21Z" transform="translate(-122.65 -264.69)"/><path class="cls-3" d="M497.88,436.56c-5.56-5.64-18.71-5.52-28.89.3-7.74,1.92-16.75,15.9-22.58,31.93-6.53,17.92-7.4,40.8.76,50.7,6.58,8,25.16,8.4,39.08-10.66,10.07,16.66,23.34,13.77,38.71-1.91v8.2l23.26-3.43,9.15-57.78c3.18-10.29,13.17-17.44,17.16-8.39,1.12,7.37-1.63,17.59-4.29,27.75-5.24,22.31-4.27,38,12.87,36.46,10.24-1.19,18.21-6.73,24.6-15.3,5.91,19.35,31.08,14.78,43.47-10.39,13,32.22,60.83,16.59,66.74-37.75,11.34-5.65,22.86-16.71,20.57-26.08-3.79-2.72-11.66,15.3-20.31,16.37,2.49-28.75-19.12-35.31-38.94-25.76-17.63,8.49-28.58,29.35-29.81,59.33A20.27,20.27,0,0,1,646,480.69c-4.39,6.42-10.76,9.67-14.29,2.51,1.68-18,5-38.13,9.23-59.49l13-2.07,2.77-12.2-14,2.76L648,381.65,623.54,385l-5.34,28.7-9.54.76-1.9,12.4,9.72-.19-9,51.78a13.09,13.09,0,0,1-2.79,6.12c-4.89,5.87-10.36,8.5-13,2.73l5.06-38.13c9.24-34.37-18.7-37.56-36.33-16.31l1.24-8.2-23.59,2.72-9.73,59a15.84,15.84,0,0,1-4,8.19c-4.28,4.62-8.6,7.18-13,4.13-2.06-2.65-.36-11.33,1-19.4l11.15-49.53L499.31,432Z" transform="translate(-122.65 -264.69)"/><path class="cls-5" d="M494.18,431.49c-5.57-5.63-18.71-5.52-28.89.3-7.74,1.93-16.75,15.9-22.58,31.93-6.53,17.92-7.41,40.8.76,50.7,6.57,8,25.16,8.41,39.08-10.66,10.07,16.66,23.34,13.78,38.71-1.91v8.2l23.26-3.43,9.15-57.77c3.18-10.29,13.17-17.44,17.16-8.39,1.12,7.37-1.63,17.58-4.29,27.74-5.24,22.32-4.28,38,12.87,36.47,10.24-1.2,18.21-6.74,24.6-15.31,5.91,19.36,31.08,14.78,43.47-10.39,13,32.23,60.83,16.59,66.74-37.75,11.34-5.65,22.86-16.71,20.57-26.08-3.79-2.71-11.66,15.31-20.31,16.38,2.49-28.76-19.12-35.31-38.94-25.77-17.63,8.49-28.58,29.35-29.81,59.34a20.27,20.27,0,0,1-3.48,10.54c-4.39,6.41-10.76,9.66-14.29,2.51,1.68-18,5-38.14,9.23-59.49l13-2.08,2.76-12.2-14,2.77,5.39-30.56-24.51,3.34-5.33,28.69-9.54.77-1.91,12.39,9.73-.19-9,51.79a13,13,0,0,1-2.8,6.12c-4.88,5.86-10.35,8.5-13,2.72l5-38.13c9.25-34.37-18.7-37.56-36.32-16.3l1.24-8.2-23.6,2.71-9.73,59a15.78,15.78,0,0,1-4,8.19c-4.28,4.61-8.6,7.17-13,4.12-2.07-2.65-.37-11.33,1-19.4l11.15-49.52-24.12,2.19Z" transform="translate(-122.65 -264.69)"/><path class="cls-3" d="M467.65,499.58a4.88,4.88,0,0,1-2.34-1.27,11.55,11.55,0,0,1-1.19-1.59,8.83,8.83,0,0,1-1-1.55,5.84,5.84,0,0,1-.37-2.12c-.37-8.35,1.54-16.61,3.44-24.74.33-1.42.66-2.83,1-4.24a81.74,81.74,0,0,1,5.93-15.8,25.25,25.25,0,0,1,4.41-6.65,10.78,10.78,0,0,1,7-3.4,6.92,6.92,0,0,1,6.55,3.74,9,9,0,0,1,.3,5.38Z" transform="translate(-122.65 -264.69)"/><path d="M490.65,445.78a6.17,6.17,0,0,0-2.29-2.87c-1.76-.94-3.94,0-5.45,1.35a26.86,26.86,0,0,0-5.16,6.87,54.43,54.43,0,0,0-3.45,6.43,55.71,55.71,0,0,0-2.3,7.19c-2.3,8.49-4.6,17-5.8,25.73a17.85,17.85,0,0,0-.23,4.19,11.87,11.87,0,0,0,1.68,4.91,7.57,7.57,0,0,0,2.07.25c4.53-.09,8.55-3.29,10.86-7.2s3.24-8.45,4.13-12.9c1-4.83,1.88-9.59,2.37-14.45.52-5.26,2.62-10.78,3.88-15.92.16-.66.32-1.34.45-2C491.16,446.82,490.91,446.29,490.65,445.78Z" transform="translate(-122.65 -264.69)"/><path class="cls-7" d="M691.92,433.15a5.08,5.08,0,0,0-1,5.38c.74,1.76,2.4,2.92,3.71,4.32a3.69,3.69,0,0,1,1,1.62,4.33,4.33,0,0,1,0,1.68c-.74,4.42-2.91,8.5-3.72,12.93a45.32,45.32,0,0,1-3,9.34,23,23,0,0,1-4.23,7.05,10.05,10.05,0,0,1-7.3,3.4,4.65,4.65,0,0,1-2.89-.91,3.26,3.26,0,0,1-.46-.45,5.82,5.82,0,0,1-.68-.89c-2.11-3.16-2.39-7-2.85-10.76-.59-4.82.4-9.68,1-14.49.72-5.84,2.81-11.12,4.21-16.85,1.83-7.57,5-15.15,11-20.21a6.12,6.12,0,0,1,2.4-1.42,4.18,4.18,0,0,1,3.76,1,5.78,5.78,0,0,1,1.59,2.38,7,7,0,0,1,.26,1.05,5.52,5.52,0,0,1,1.05,4.06c-.07,2.15-1.07,4.6-.17,6.56a2.82,2.82,0,0,1-.95,3.06C693.77,431.81,692.71,432.33,691.92,433.15Z" transform="translate(-122.65 -264.69)"/><path d="M691.92,433.15a5.08,5.08,0,0,0-1,5.38c.74,1.76,2.4,2.92,3.71,4.32a3.69,3.69,0,0,1,1,1.62,4.33,4.33,0,0,1,0,1.68c-.74,4.42-2.91,8.5-3.72,12.93a45.32,45.32,0,0,1-3,9.34,23,23,0,0,1-4.23,7.05,10.05,10.05,0,0,1-7.3,3.4,4.65,4.65,0,0,1-2.89-.91,3.26,3.26,0,0,1-.46-.45c-7.16-19,7.52-66.48,20.43-61.23a7,7,0,0,1,.26,1.05,5.52,5.52,0,0,1,1.05,4.06c-.07,2.15-1.07,4.6-.17,6.56a2.82,2.82,0,0,1-.95,3.06C693.77,431.81,692.71,432.33,691.92,433.15Z" transform="translate(-122.65 -264.69)"/></svg>